<svg width="12" height="14" viewBox="0 0 12 14" fill="none" xmlns="http://www.w3.org/2000/svg">
<path fill-rule="evenodd" clip-rule="evenodd" d="M4 1.5C4 1.22386 4.22386 1 4.5 1H7.5C7.77614 1 8 1.22386 8 1.5V2H4V1.5ZM3 2V1.5C3 0.671573 3.67157 0 4.5 0H7.5C8.32843 0 9 0.671573 9 1.5V2H11.5C11.7761 2 12 2.22386 12 2.5C12 2.77614 11.7761 3 11.5 3H11V11.5C11 12.8807 9.88071 14 8.5 14H3.5C2.11929 14 1 12.8807 1 11.5V3H0.5C0.223858 3 0 2.77614 0 2.5C0 2.22386 0.223858 2 0.5 2H3ZM2 3V11.5C2 12.3284 2.67157 13 3.5 13H8.5C9.32843 13 10 12.3284 10 11.5V3H2ZM4.5 6C4.77614 6 5 6.22386 5 6.5V10.5C5 10.7761 4.77614 11 4.5 11C4.22386 11 4 10.7761 4 10.5V6.5C4 6.22386 4.22386 6 4.5 6ZM7.5 6C7.77614 6 8 6.22386 8 6.5V10.5C8 10.7761 7.77614 11 7.5 11C7.22386 11 7 10.7761 7 10.5V6.5C7 6.22386 7.22386 6 7.5 6Z" fill="black"/>
</svg>
