<svg width="12" height="14" viewBox="0 0 12 14" fill="none" xmlns="http://www.w3.org/2000/svg">
<path fill-rule="evenodd" clip-rule="evenodd" d="M2 2.5C2 1.11929 3.11929 0 4.5 0H9.5C10.8807 0 12 1.11929 12 2.5V8.5C12 9.70948 11.1411 10.7184 10 10.95V11.5C10 12.8807 8.88071 14 7.5 14H2.5C1.11929 14 0 12.8807 0 11.5V5.5C0 4.29052 0.85888 3.28164 2 3.05001V2.5ZM11 8.5C11 9.15311 10.5826 9.70873 10 9.91465V5.5C10 4.11929 8.88071 3 7.5 3H3V2.5C3 1.67157 3.67157 1 4.5 1H9.5C10.3284 1 11 1.67157 11 2.5V8.5ZM1 5.5C1 4.67157 1.67157 4 2.5 4H7.5C8.32843 4 9 4.67157 9 5.5V11.5C9 12.3284 8.32843 13 7.5 13H2.5C1.67157 13 1 12.3284 1 11.5V5.5ZM3.44446 6C3.16831 6 2.94446 6.22386 2.94445 6.5C2.94445 6.77614 3.16831 7 3.44445 7L6.50001 7.00001C6.77615 7.00001 7.00001 6.77616 7.00001 6.50001C7.00001 6.22387 6.77616 6.00001 6.50001 6.00001L3.44446 6ZM3.44447 9.00002C3.16833 9.00002 2.94447 9.22388 2.94447 9.50002C2.94447 9.77616 3.16833 10 3.44447 10L5.49999 10C5.77614 10 5.99999 9.77616 5.99999 9.50002C5.99999 9.22388 5.77614 9.00002 5.49999 9.00002H3.44447Z" fill="black"/>
</svg>
